<?xml version="1.0" encoding="utf-8"?>
<!-- Generator: Adobe Illustrator 17.1.0, SVG Export Plug-In . SVG Version: 6.00 Build 0)  -->
<!DOCTYPE svg PUBLIC "-//W3C//DTD SVG 1.1//EN" "http://www.w3.org/Graphics/SVG/1.1/DTD/svg11.dtd">
<svg version="1.1" xmlns="http://www.w3.org/2000/svg" xmlns:xlink="http://www.w3.org/1999/xlink" x="0px" y="0px"
	 viewBox="0 0 513 489" enable-background="new 0 0 513 489" xml:space="preserve">
<g id="Background" display="none">
	<radialGradient id="SVGID_1_" cx="267.4865" cy="305.9852" r="755.9632" gradientUnits="userSpaceOnUse">
		<stop  offset="0" style="stop-color:#FFFFFF"/>
		<stop  offset="0.2224" style="stop-color:#F7F9FA"/>
		<stop  offset="0.5644" style="stop-color:#E2E8EC"/>
		<stop  offset="0.9814" style="stop-color:#BFCDD5"/>
		<stop  offset="1" style="stop-color:#BDCCD4"/>
	</radialGradient>
	<rect x="-148.1" y="-89.6" display="inline" fill="url(#SVGID_1_)" width="800" height="800"/>
</g>
<g id="Objects">
	<g id="Logo" display="none">
		<path display="inline" fill="#808080" d="M140.4,674.5v-0.3c-0.3,0.4-0.7,0.7-1,1c-0.3,0.3-0.7,0.4-1.1,0.6
			c-0.2,0.1-0.3,0.1-0.5,0.1V674c0.5,0,0.9-0.1,1.2-0.4c0.4-0.2,0.7-0.6,0.9-1.1c0.2-0.5,0.3-1.1,0.3-1.8c0-0.7-0.1-1.3-0.3-1.8
			c-0.2-0.5-0.5-0.9-0.9-1.1c-0.4-0.3-0.8-0.4-1.2-0.4v-1.9c0.4,0.1,0.8,0.2,1.1,0.3c0.5,0.3,1,0.7,1.5,1.2v-3.8
			c0-0.5,0.1-0.9,0.3-1.2c0.2-0.3,0.5-0.4,0.9-0.4c0.4,0,0.7,0.1,0.9,0.4c0.2,0.3,0.3,0.6,0.3,1.1v11.4c0,0.5-0.1,0.9-0.3,1.1
			c-0.2,0.2-0.5,0.4-0.9,0.4c-0.4,0-0.6-0.1-0.9-0.4C140.5,675.4,140.4,675,140.4,674.5z M137.8,675.9c-0.3,0-0.5,0.1-0.8,0.1
			c-0.6,0-1.2-0.1-1.7-0.4c-0.5-0.3-1-0.6-1.4-1.1c-0.4-0.5-0.7-1.1-0.9-1.7c-0.2-0.7-0.3-1.4-0.3-2.1c0-1.6,0.4-2.9,1.2-3.8
			c0.8-0.9,1.8-1.4,3.1-1.4c0.3,0,0.5,0,0.8,0.1v1.9h0c-0.5,0-0.9,0.1-1.3,0.4c-0.4,0.3-0.7,0.7-0.9,1.2c-0.2,0.5-0.3,1.1-0.3,1.8
			l0,0c0,0.7,0.1,1.3,0.3,1.8c0.2,0.5,0.5,0.9,0.9,1.1c0.4,0.3,0.8,0.4,1.2,0.4h0V675.9z"/>
		<path display="inline" fill="#808080" d="M151.8,671.4h-2.7v-1.5h2.4c-0.1-0.9-0.3-1.5-0.7-2c-0.4-0.4-1-0.7-1.6-0.7v-1.8h0.1
			c1,0,1.9,0.2,2.6,0.6c0.7,0.4,1.3,1,1.6,1.7c0.4,0.7,0.5,1.4,0.5,2.1c0,0.7-0.2,1.1-0.6,1.3C153,671.3,152.5,671.4,151.8,671.4
			L151.8,671.4z M149.1,674.3c0.1,0,0.1,0,0.2,0c0.3,0,0.6,0,0.8-0.1c0.3-0.1,0.5-0.2,0.7-0.3c0.2-0.2,0.5-0.3,0.7-0.5
			c0.2-0.2,0.5-0.4,0.8-0.7c0.1-0.1,0.3-0.2,0.6-0.2c0.3,0,0.5,0.1,0.6,0.2c0.2,0.1,0.2,0.4,0.2,0.6c0,0.2-0.1,0.5-0.3,0.8
			c-0.2,0.3-0.5,0.6-0.8,0.9c-0.4,0.3-0.8,0.5-1.4,0.7c-0.6,0.2-1.2,0.3-1.9,0.3c-0.1,0-0.2,0-0.3,0V674.3z M149.1,671.4h-2.3
			c0,0.6,0.1,1.1,0.4,1.6c0.2,0.5,0.5,0.8,0.9,1c0.3,0.2,0.7,0.3,1.1,0.3v1.7c-1.5,0-2.7-0.5-3.6-1.4c-0.9-0.9-1.4-2.2-1.4-3.9
			c0-0.8,0.1-1.5,0.3-2.1c0.2-0.7,0.6-1.2,1-1.7c0.4-0.5,1-0.8,1.6-1.1c0.6-0.2,1.3-0.4,2-0.4v1.8h0c-0.6,0-1.2,0.2-1.6,0.7
			c-0.4,0.4-0.7,1.1-0.8,2l0,0h2.3V671.4z"/>
		<path display="inline" fill="#808080" d="M163.6,672.6c0,0.7-0.2,1.3-0.5,1.8c-0.3,0.5-0.9,0.9-1.5,1.2c-0.7,0.3-1.5,0.4-2.5,0.4
			c-0.9,0-1.7-0.1-2.4-0.4c-0.7-0.3-1.2-0.6-1.5-1.1c-0.3-0.4-0.5-0.9-0.5-1.3c0-0.3,0.1-0.5,0.3-0.7c0.2-0.2,0.5-0.3,0.8-0.3
			c0.3,0,0.5,0.1,0.6,0.2s0.3,0.3,0.4,0.6c0.3,0.5,0.6,0.8,1,1c0.4,0.2,0.9,0.3,1.5,0.3c0.5,0,0.9-0.1,1.3-0.3
			c0.3-0.2,0.5-0.5,0.5-0.8c0-0.5-0.2-0.8-0.5-1c-0.3-0.2-0.9-0.4-1.7-0.6c-0.9-0.2-1.6-0.5-2.2-0.7c-0.6-0.2-1-0.6-1.3-1
			c-0.3-0.4-0.5-0.9-0.5-1.5c0-0.5,0.2-1,0.5-1.5c0.3-0.5,0.8-0.8,1.4-1.1c0.6-0.3,1.3-0.4,2.2-0.4c0.7,0,1.3,0.1,1.8,0.2
			c0.5,0.1,1,0.3,1.3,0.6c0.4,0.2,0.6,0.5,0.8,0.8c0.2,0.3,0.3,0.6,0.3,0.8c0,0.3-0.1,0.5-0.3,0.7c-0.2,0.2-0.5,0.3-0.9,0.3
			c-0.3,0-0.5-0.1-0.7-0.2c-0.2-0.2-0.4-0.4-0.6-0.7c-0.2-0.3-0.4-0.5-0.7-0.6c-0.3-0.2-0.6-0.2-1.1-0.2c-0.5,0-0.9,0.1-1.2,0.3
			c-0.3,0.2-0.5,0.4-0.5,0.7c0,0.3,0.1,0.5,0.3,0.7c0.2,0.2,0.5,0.3,0.9,0.4c0.4,0.1,0.9,0.3,1.6,0.4c0.8,0.2,1.5,0.4,2,0.7
			c0.5,0.3,0.9,0.6,1.2,1C163.5,671.7,163.6,672.1,163.6,672.6z"/>
		<path display="inline" fill="#808080" d="M166.3,664.3c-0.4,0-0.7-0.1-0.9-0.3c-0.3-0.2-0.4-0.5-0.4-0.9c0-0.4,0.1-0.7,0.4-0.9
			c0.3-0.2,0.6-0.4,0.9-0.4c0.3,0,0.6,0.1,0.9,0.3c0.3,0.2,0.4,0.5,0.4,0.9c0,0.4-0.1,0.7-0.4,0.9
			C166.9,664.1,166.6,664.3,166.3,664.3L166.3,664.3z M167.6,666.9L167.6,666.9v7.5c0,0.5-0.1,0.9-0.4,1.2c-0.2,0.3-0.6,0.4-0.9,0.4
			c-0.4,0-0.7-0.1-0.9-0.4c-0.2-0.3-0.4-0.7-0.4-1.2V667c0-0.5,0.1-0.9,0.4-1.2c0.2-0.3,0.5-0.4,0.9-0.4c0.4,0,0.7,0.1,0.9,0.4
			C167.4,666.1,167.6,666.5,167.6,666.9z"/>
		<path display="inline" fill="#808080" d="M178.9,667.4v7.5c0,0.9-0.1,1.6-0.3,2.2c-0.2,0.6-0.5,1.1-0.9,1.5
			c-0.4,0.4-0.9,0.7-1.6,0.9c-0.6,0.2-1.4,0.3-2.3,0.3V678c0.6,0,1-0.1,1.3-0.3c0.4-0.2,0.6-0.4,0.8-0.8c0.2-0.3,0.2-0.7,0.3-1.1
			c0-0.4,0-1,0.1-1.8c-0.4,0.6-0.9,1-1.4,1.3c-0.3,0.2-0.7,0.3-1.1,0.4v-1.9c0.4,0,0.8-0.1,1.2-0.3c0.4-0.2,0.7-0.6,0.9-1
			c0.2-0.5,0.4-1,0.4-1.7c0-1.1-0.2-1.9-0.7-2.5c-0.5-0.6-1.1-0.9-1.8-0.9v-1.9c0.4,0.1,0.8,0.2,1.1,0.4c0.5,0.3,1,0.7,1.5,1.3v-0.4
			c0-0.5,0.1-0.8,0.3-1c0.2-0.2,0.5-0.4,0.9-0.4c0.5,0,0.8,0.2,1,0.5C178.8,666.3,178.9,666.7,178.9,667.4z M173.9,679.8l-0.2,0
			c-0.9,0-1.7-0.1-2.4-0.4c-0.7-0.3-1.2-0.6-1.6-1c-0.4-0.4-0.6-0.8-0.6-1.2c0-0.3,0.1-0.6,0.3-0.8c0.2-0.2,0.5-0.3,0.8-0.3
			c0.4,0,0.7,0.2,1,0.5c0.1,0.2,0.3,0.3,0.4,0.5c0.1,0.2,0.3,0.3,0.5,0.4c0.2,0.1,0.4,0.2,0.7,0.3c0.3,0.1,0.5,0.1,0.9,0.1
			c0.1,0,0.1,0,0.2,0V679.8L173.9,679.8z M173.9,675.7c-0.3,0-0.5,0.1-0.8,0.1c-0.9,0-1.6-0.2-2.3-0.7c-0.6-0.4-1.1-1.1-1.5-1.9
			c-0.3-0.8-0.5-1.7-0.5-2.8c0-0.8,0.1-1.5,0.3-2.1c0.2-0.6,0.5-1.2,0.9-1.6c0.4-0.4,0.8-0.8,1.4-1c0.5-0.2,1.1-0.3,1.7-0.3
			c0.3,0,0.6,0,0.8,0.1v1.9h0c-0.7,0-1.3,0.3-1.8,0.8c-0.4,0.6-0.7,1.4-0.7,2.4l0,0c0,1.1,0.2,1.8,0.7,2.4c0.5,0.5,1.1,0.8,1.8,0.8
			h0V675.7z"/>
		<path display="inline" fill="#808080" d="M183,666.9v0.3c0.5-0.6,1-1,1.5-1.3c0.5-0.3,1.2-0.4,1.9-0.4c0.7,0,1.3,0.1,1.8,0.4
			c0.5,0.3,0.9,0.7,1.2,1.3c0.2,0.3,0.3,0.7,0.3,1c0.1,0.4,0.1,0.8,0.1,1.4v4.8c0,0.5-0.1,0.9-0.4,1.2c-0.2,0.3-0.5,0.4-0.9,0.4
			c-0.4,0-0.7-0.1-0.9-0.4c-0.2-0.3-0.4-0.7-0.4-1.2v-4.3c0-0.9-0.1-1.5-0.4-2c-0.2-0.5-0.7-0.7-1.4-0.7c-0.5,0-0.9,0.1-1.3,0.4
			c-0.4,0.3-0.7,0.7-0.8,1.1c-0.1,0.4-0.2,1.1-0.2,2.2v3.2c0,0.5-0.1,0.9-0.4,1.2c-0.2,0.3-0.6,0.4-0.9,0.4c-0.4,0-0.7-0.1-0.9-0.4
			c-0.2-0.3-0.4-0.7-0.4-1.2v-7.5c0-0.5,0.1-0.9,0.3-1.1c0.2-0.2,0.5-0.4,0.9-0.4c0.2,0,0.4,0.1,0.6,0.2c0.2,0.1,0.3,0.3,0.4,0.5
			C183,666.3,183,666.6,183,666.9z"/>
		<path display="inline" fill="#808080" d="M198.8,671.4h-2.7v-1.5h2.4c-0.1-0.9-0.3-1.5-0.7-2c-0.4-0.4-1-0.7-1.6-0.7v-1.8h0.1
			c1,0,1.9,0.2,2.6,0.6c0.7,0.4,1.3,1,1.6,1.7c0.4,0.7,0.5,1.4,0.5,2.1c0,0.7-0.2,1.1-0.6,1.3C200,671.3,199.5,671.4,198.8,671.4
			L198.8,671.4z M196.1,674.3c0.1,0,0.1,0,0.2,0c0.3,0,0.6,0,0.9-0.1c0.3-0.1,0.5-0.2,0.7-0.3c0.2-0.2,0.5-0.3,0.7-0.5
			c0.2-0.2,0.5-0.4,0.8-0.7c0.1-0.1,0.3-0.2,0.6-0.2c0.3,0,0.5,0.1,0.6,0.2c0.2,0.1,0.2,0.4,0.2,0.6c0,0.2-0.1,0.5-0.3,0.8
			c-0.2,0.3-0.5,0.6-0.8,0.9c-0.4,0.3-0.8,0.5-1.4,0.7c-0.6,0.2-1.2,0.3-1.9,0.3c-0.1,0-0.2,0-0.3,0V674.3z M196.1,671.4h-2.3
			c0,0.6,0.1,1.1,0.4,1.6c0.2,0.5,0.5,0.8,0.9,1c0.3,0.2,0.7,0.3,1.1,0.3v1.7c-1.5,0-2.7-0.5-3.6-1.4c-0.9-0.9-1.4-2.2-1.4-3.9
			c0-0.8,0.1-1.5,0.3-2.1c0.2-0.7,0.6-1.2,1-1.7c0.4-0.5,1-0.8,1.6-1.1c0.6-0.2,1.3-0.4,2-0.4v1.8h0c-0.6,0-1.2,0.2-1.6,0.7
			c-0.4,0.4-0.7,1.1-0.8,2l0,0h2.3V671.4z"/>
		<path display="inline" fill="#808080" d="M209.4,674.5v-0.3c-0.3,0.4-0.7,0.7-1,1c-0.3,0.3-0.7,0.4-1.1,0.6
			c-0.2,0.1-0.3,0.1-0.5,0.1V674c0.5,0,0.9-0.1,1.2-0.4c0.4-0.2,0.7-0.6,0.9-1.1c0.2-0.5,0.3-1.1,0.3-1.8c0-0.7-0.1-1.3-0.3-1.8
			c-0.2-0.5-0.5-0.9-0.9-1.1c-0.4-0.3-0.8-0.4-1.2-0.4v-1.9c0.4,0.1,0.8,0.2,1.1,0.3c0.5,0.3,1,0.7,1.5,1.2v-3.8
			c0-0.5,0.1-0.9,0.3-1.2c0.2-0.3,0.5-0.4,0.9-0.4c0.4,0,0.7,0.1,0.9,0.4c0.2,0.3,0.3,0.6,0.3,1.1v11.4c0,0.5-0.1,0.9-0.3,1.1
			c-0.2,0.2-0.5,0.4-0.9,0.4c-0.4,0-0.6-0.1-0.9-0.4C209.5,675.4,209.4,675,209.4,674.5z M206.8,675.9c-0.3,0-0.5,0.1-0.8,0.1
			c-0.6,0-1.2-0.1-1.7-0.4c-0.5-0.3-1-0.6-1.4-1.1c-0.4-0.5-0.7-1.1-0.9-1.7c-0.2-0.7-0.3-1.4-0.3-2.1c0-1.6,0.4-2.9,1.2-3.8
			c0.8-0.9,1.8-1.4,3.1-1.4c0.3,0,0.5,0,0.8,0.1v1.9h0c-0.5,0-0.9,0.1-1.3,0.4c-0.4,0.3-0.7,0.7-0.9,1.2c-0.2,0.5-0.3,1.1-0.3,1.8
			l0,0c0,0.7,0.1,1.3,0.3,1.8c0.2,0.5,0.5,0.9,0.9,1.1c0.4,0.3,0.8,0.4,1.2,0.4h0V675.9z"/>
		<path display="inline" fill="#808080" d="M222.6,665.5c0.2,0,0.5-0.1,0.8-0.1c0.9,0,1.6,0.2,2.3,0.6c0.6,0.4,1.2,1,1.5,1.8
			c0.4,0.8,0.5,1.7,0.5,2.8c0,0.8-0.1,1.5-0.3,2.2c-0.2,0.7-0.5,1.2-0.9,1.7c-0.4,0.5-0.8,0.9-1.4,1.1c-0.5,0.3-1.1,0.4-1.8,0.4
			c-0.3,0-0.5,0-0.7-0.1V674l0.1,0c0.7,0,1.2-0.3,1.7-0.8c0.5-0.6,0.7-1.4,0.7-2.4c0-0.7-0.1-1.3-0.3-1.8c-0.2-0.5-0.5-0.9-0.8-1.1
			c-0.4-0.3-0.8-0.4-1.3-0.4l-0.1,0V665.5z M220,663.1v4c0.5-0.5,1-0.9,1.5-1.2c0.3-0.2,0.7-0.3,1.1-0.3v1.9c-0.5,0-0.9,0.1-1.2,0.4
			c-0.4,0.3-0.7,0.7-0.9,1.2c-0.2,0.5-0.3,1.1-0.3,1.8l0,0c0,1,0.2,1.8,0.7,2.4c0.5,0.5,1,0.8,1.8,0.8v1.9c-0.1,0-0.3,0-0.4-0.1
			c-0.4-0.1-0.7-0.2-0.9-0.4c-0.2-0.2-0.5-0.3-0.6-0.5c-0.2-0.2-0.4-0.4-0.7-0.7v0.3c0,0.5-0.1,0.9-0.4,1.1
			c-0.2,0.3-0.5,0.4-0.9,0.4c-0.4,0-0.7-0.1-0.9-0.4c-0.2-0.3-0.3-0.6-0.3-1.1v-11.3c0-0.5,0.1-0.9,0.3-1.2c0.2-0.3,0.5-0.4,0.9-0.4
			c0.4,0,0.7,0.1,0.9,0.4C219.9,662.2,220,662.6,220,663.1z"/>
		<path display="inline" fill="#808080" d="M231,676.3l0.2-0.6l-3.2-8c-0.2-0.5-0.3-0.8-0.3-1c0-0.2,0.1-0.4,0.2-0.6
			c0.1-0.2,0.3-0.3,0.5-0.5c0.2-0.1,0.4-0.2,0.6-0.2c0.4,0,0.7,0.1,0.8,0.4c0.2,0.2,0.4,0.6,0.5,1l2.2,6.4l2.1-5.9
			c0.2-0.5,0.3-0.9,0.4-1.1c0.1-0.3,0.3-0.5,0.4-0.5c0.1-0.1,0.4-0.1,0.6-0.1c0.2,0,0.4,0.1,0.6,0.2c0.2,0.1,0.3,0.2,0.4,0.4
			c0.1,0.2,0.1,0.4,0.1,0.6c0,0.1-0.1,0.3-0.1,0.5c-0.1,0.2-0.1,0.4-0.2,0.7l-3.4,8.9c-0.3,0.8-0.6,1.4-0.9,1.8
			c-0.3,0.4-0.6,0.8-1.1,1c-0.5,0.2-1.1,0.4-1.9,0.4c-0.8,0-1.3-0.1-1.7-0.2c-0.4-0.2-0.6-0.5-0.6-0.9c0-0.3,0.1-0.5,0.3-0.7
			c0.2-0.2,0.4-0.2,0.8-0.2c0.1,0,0.3,0,0.4,0.1c0.2,0,0.3,0.1,0.4,0.1c0.3,0,0.5,0,0.7-0.1c0.2-0.1,0.3-0.2,0.5-0.5
			C230.7,677.1,230.9,676.7,231,676.3z"/>
		<path display="inline" fill="#808080" d="M268.6,665.7h0.6v-0.8c0-0.8,0.1-1.5,0.3-1.9c0.2-0.5,0.6-0.8,1-1c0.5-0.2,1.2-0.3,2-0.3
			c1.5,0,2.3,0.4,2.3,1.1c0,0.2-0.1,0.4-0.2,0.6c-0.2,0.2-0.3,0.3-0.6,0.3c-0.1,0-0.3,0-0.5-0.1c-0.2,0-0.5-0.1-0.6-0.1
			c-0.5,0-0.8,0.1-0.9,0.4c-0.1,0.3-0.2,0.7-0.2,1.2v0.6h0.6c1,0,1.5,0.3,1.5,0.9c0,0.4-0.1,0.7-0.4,0.8c-0.3,0.1-0.6,0.2-1.1,0.2
			h-0.6v6.9c0,0.5-0.1,0.9-0.4,1.2c-0.2,0.3-0.6,0.4-0.9,0.4c-0.4,0-0.7-0.1-0.9-0.4c-0.2-0.3-0.4-0.7-0.4-1.2v-6.9h-0.7
			c-0.4,0-0.7-0.1-0.9-0.3c-0.2-0.2-0.3-0.4-0.3-0.7C267.3,666,267.7,665.7,268.6,665.7z"/>
		<path display="inline" fill="#808080" d="M277.1,672.3v2.2c0,0.5-0.1,0.9-0.4,1.2c-0.2,0.3-0.6,0.4-0.9,0.4
			c-0.4,0-0.7-0.1-0.9-0.4c-0.2-0.3-0.4-0.7-0.4-1.2v-7.2c0-1.2,0.4-1.8,1.3-1.8c0.4,0,0.7,0.1,0.9,0.4c0.2,0.3,0.3,0.7,0.3,1.2
			c0.3-0.5,0.6-0.9,0.9-1.2c0.3-0.3,0.8-0.4,1.3-0.4c0.5,0,1.1,0.1,1.6,0.4c0.5,0.3,0.8,0.6,0.8,1.1c0,0.3-0.1,0.6-0.3,0.8
			c-0.2,0.2-0.5,0.3-0.7,0.3c-0.1,0-0.3-0.1-0.7-0.2c-0.4-0.1-0.7-0.2-1-0.2c-0.4,0-0.7,0.1-0.9,0.3c-0.2,0.2-0.4,0.5-0.6,0.9
			c-0.1,0.4-0.2,0.9-0.3,1.4C277.1,670.8,277.1,671.5,277.1,672.3z"/>
		<path display="inline" fill="#808080" d="M289,671.4h-2.7v-1.5h2.4c-0.1-0.9-0.3-1.5-0.7-2c-0.4-0.4-1-0.7-1.6-0.7v-1.8h0.1
			c1,0,1.9,0.2,2.6,0.6c0.7,0.4,1.3,1,1.6,1.7c0.4,0.7,0.5,1.4,0.5,2.1c0,0.6-0.2,1.1-0.6,1.3C290.2,671.3,289.7,671.4,289,671.4
			L289,671.4z M286.3,674.3c0.1,0,0.1,0,0.2,0c0.3,0,0.6,0,0.8-0.1c0.3-0.1,0.5-0.2,0.7-0.3c0.2-0.2,0.5-0.3,0.7-0.5
			c0.2-0.2,0.5-0.4,0.8-0.7c0.1-0.1,0.3-0.2,0.6-0.2c0.3,0,0.5,0.1,0.6,0.2c0.2,0.1,0.2,0.4,0.2,0.6c0,0.2-0.1,0.5-0.3,0.8
			c-0.2,0.3-0.5,0.6-0.8,0.9c-0.4,0.3-0.8,0.5-1.4,0.7c-0.6,0.2-1.2,0.3-1.9,0.3c-0.1,0-0.2,0-0.3,0V674.3z M286.3,671.4h-2.3
			c0,0.6,0.1,1.1,0.4,1.6c0.2,0.4,0.5,0.8,0.9,1c0.3,0.2,0.7,0.3,1.1,0.3v1.7c-1.5,0-2.7-0.5-3.6-1.4c-0.9-1-1.4-2.2-1.4-3.9
			c0-0.8,0.1-1.5,0.3-2.1c0.2-0.7,0.6-1.2,1-1.7c0.4-0.5,1-0.8,1.6-1.1c0.6-0.2,1.3-0.4,2-0.4v1.8h0c-0.6,0-1.2,0.2-1.6,0.7
			c-0.4,0.4-0.7,1.1-0.8,2l0,0h2.3V671.4z"/>
		<path display="inline" fill="#808080" d="M299.8,671.4h-2.7v-1.5h2.3c-0.1-0.9-0.3-1.5-0.7-2c-0.4-0.4-1-0.7-1.6-0.7v-1.8h0.1
			c1,0,1.9,0.2,2.6,0.6c0.7,0.4,1.3,1,1.6,1.7c0.4,0.7,0.5,1.4,0.5,2.1c0,0.6-0.2,1.1-0.6,1.3C301,671.3,300.5,671.4,299.8,671.4
			L299.8,671.4z M297.1,674.3c0.1,0,0.1,0,0.2,0c0.3,0,0.6,0,0.8-0.1c0.3-0.1,0.5-0.2,0.8-0.3c0.2-0.2,0.5-0.3,0.7-0.5
			c0.2-0.2,0.5-0.4,0.8-0.7c0.1-0.1,0.3-0.2,0.6-0.2c0.3,0,0.5,0.1,0.7,0.2c0.2,0.1,0.2,0.4,0.2,0.6c0,0.2-0.1,0.5-0.3,0.8
			c-0.2,0.3-0.5,0.6-0.8,0.9c-0.4,0.3-0.8,0.5-1.4,0.7c-0.6,0.2-1.2,0.3-1.9,0.3c-0.1,0-0.2,0-0.3,0V674.3z M297.1,671.4h-2.3
			c0,0.6,0.1,1.1,0.4,1.6c0.2,0.4,0.5,0.8,0.9,1c0.3,0.2,0.7,0.3,1.1,0.3v1.7c-1.5,0-2.7-0.5-3.6-1.4c-0.9-1-1.4-2.2-1.4-3.9
			c0-0.8,0.1-1.5,0.3-2.1c0.2-0.7,0.6-1.2,1-1.7c0.4-0.5,1-0.8,1.6-1.1c0.6-0.2,1.3-0.4,2-0.4v1.8h0c-0.6,0-1.2,0.2-1.6,0.7
			c-0.4,0.4-0.7,1.1-0.8,2l0,0h2.3V671.4z"/>
		<path display="inline" fill="#808080" d="M308.1,665.5c0.2,0,0.5-0.1,0.7-0.1c0.8,0,1.5,0.2,2.2,0.6c0.7,0.4,1.2,1,1.6,1.8
			c0.4,0.8,0.6,1.7,0.6,2.8c0,0.8-0.1,1.5-0.3,2.2c-0.2,0.7-0.5,1.2-0.9,1.7c-0.4,0.5-0.9,0.8-1.4,1c-0.5,0.2-1.1,0.4-1.7,0.4
			c-0.2,0-0.5,0-0.7-0.1v-2l0.1,0c0.4,0,0.8-0.1,1.2-0.4c0.4-0.3,0.7-0.6,0.9-1.1c0.2-0.5,0.3-1.1,0.3-1.8l0,0
			c0-0.7-0.1-1.3-0.3-1.8c-0.2-0.5-0.5-0.9-0.9-1.1c-0.4-0.3-0.8-0.4-1.2-0.4l-0.1,0V665.5z M305.5,666.9v0.3c0.5-0.6,1-1,1.5-1.3
			c0.3-0.2,0.7-0.3,1.1-0.4v1.9c-0.7,0-1.3,0.3-1.7,0.8c-0.5,0.6-0.7,1.4-0.7,2.5c0,1,0.2,1.8,0.7,2.4c0.5,0.6,1,0.8,1.7,0.9v2
			c-0.4-0.1-0.8-0.2-1.2-0.4c-0.5-0.3-1-0.7-1.4-1.3v3.9c0,1.1-0.4,1.7-1.2,1.7c-0.5,0-0.8-0.1-1-0.4c-0.2-0.3-0.2-0.7-0.2-1.3
			v-11.2c0-0.5,0.1-0.9,0.3-1.1c0.2-0.2,0.5-0.4,0.9-0.4c0.4,0,0.7,0.1,0.9,0.4C305.4,666.1,305.5,666.4,305.5,666.9z"/>
		<path display="inline" fill="#808080" d="M315.8,664.2c-0.4,0-0.7-0.1-0.9-0.3c-0.3-0.2-0.4-0.5-0.4-0.9c0-0.4,0.1-0.7,0.4-0.9
			c0.3-0.2,0.6-0.4,0.9-0.4c0.3,0,0.6,0.1,0.9,0.3c0.3,0.2,0.4,0.5,0.4,0.9c0,0.4-0.1,0.7-0.4,0.9
			C316.4,664.1,316.1,664.2,315.8,664.2L315.8,664.2z M317.1,666.9L317.1,666.9v7.5c0,0.5-0.1,0.9-0.4,1.2c-0.3,0.3-0.6,0.4-0.9,0.4
			c-0.4,0-0.7-0.1-0.9-0.4c-0.2-0.3-0.4-0.7-0.4-1.2V667c0-0.5,0.1-0.9,0.4-1.2c0.2-0.3,0.5-0.4,0.9-0.4c0.4,0,0.7,0.1,0.9,0.4
			C316.9,666.1,317.1,666.5,317.1,666.9z"/>
		<path display="inline" fill="#808080" d="M325.4,674.8l-2.3-3.8l-1.4,1.3v2.1c0,0.5-0.1,0.9-0.4,1.1c-0.3,0.3-0.6,0.4-0.9,0.4
			c-0.4,0-0.7-0.1-0.9-0.4c-0.2-0.3-0.3-0.7-0.3-1.2v-11.1c0-0.6,0.1-1,0.3-1.3c0.2-0.3,0.5-0.5,1-0.5c0.4,0,0.7,0.1,0.9,0.4
			c0.2,0.3,0.4,0.7,0.4,1.2v6.3l2.9-3.1c0.4-0.4,0.6-0.6,0.8-0.8c0.2-0.1,0.4-0.2,0.7-0.2c0.3,0,0.6,0.1,0.8,0.3
			c0.2,0.2,0.3,0.5,0.3,0.8c0,0.4-0.4,0.9-1.1,1.5l-1.4,1.3l2.7,4.2c0.2,0.3,0.3,0.5,0.4,0.7c0.1,0.2,0.1,0.3,0.1,0.5
			c0,0.4-0.1,0.7-0.3,1c-0.2,0.2-0.5,0.4-0.9,0.4c-0.3,0-0.6-0.1-0.7-0.3C325.9,675.6,325.7,675.3,325.4,674.8z"/>
		<path display="inline" fill="#808080" d="M331.1,676c-0.4,0-0.7-0.1-1-0.4c-0.3-0.3-0.4-0.6-0.4-1.1c0-0.4,0.1-0.7,0.4-1
			c0.3-0.3,0.6-0.4,1-0.4c0.4,0,0.7,0.1,1,0.4c0.3,0.3,0.4,0.6,0.4,1c0,0.5-0.1,0.8-0.4,1.1C331.8,675.9,331.4,676,331.1,676z"/>
		<path display="inline" fill="#808080" d="M344,672.8c0,0.3-0.1,0.7-0.3,1c-0.2,0.4-0.5,0.7-0.9,1c-0.4,0.3-0.9,0.6-1.5,0.8
			c-0.6,0.2-1.3,0.3-2,0.3c-1.6,0-2.9-0.5-3.8-1.4c-0.9-0.9-1.3-2.2-1.3-3.8c0-1.1,0.2-2,0.6-2.8c0.4-0.8,1-1.4,1.8-1.9
			c0.8-0.4,1.7-0.7,2.8-0.7c0.7,0,1.3,0.1,1.9,0.3c0.6,0.2,1,0.5,1.4,0.8c0.4,0.3,0.7,0.6,0.9,1c0.2,0.4,0.3,0.7,0.3,1
			c0,0.3-0.1,0.6-0.3,0.8c-0.2,0.2-0.5,0.3-0.8,0.3c-0.2,0-0.4-0.1-0.5-0.2c-0.1-0.1-0.3-0.3-0.5-0.5c-0.3-0.5-0.6-0.8-1-1.1
			c-0.3-0.2-0.8-0.4-1.3-0.4c-0.8,0-1.4,0.3-1.9,0.9c-0.5,0.6-0.7,1.4-0.7,2.5c0,0.5,0.1,0.9,0.2,1.3c0.1,0.4,0.3,0.8,0.5,1
			c0.2,0.3,0.5,0.5,0.8,0.7c0.3,0.2,0.7,0.2,1.1,0.2c0.5,0,1-0.1,1.3-0.4c0.4-0.2,0.7-0.6,1-1.1c0.2-0.3,0.3-0.5,0.5-0.7
			c0.2-0.2,0.4-0.2,0.7-0.2c0.3,0,0.6,0.1,0.8,0.4C343.8,672.3,344,672.5,344,672.8z"/>
		<path display="inline" fill="#808080" d="M355.1,670.7c0,0.8-0.1,1.5-0.4,2.1c-0.2,0.7-0.6,1.2-1.1,1.7c-0.5,0.5-1,0.8-1.6,1.1
			c-0.6,0.2-1.3,0.4-2.1,0.4v-1.9c0.8,0,1.4-0.3,1.9-0.9c0.5-0.6,0.7-1.4,0.7-2.5l0,0c0-1.1-0.2-1.9-0.7-2.5
			c-0.5-0.6-1.1-0.9-1.9-0.9v-1.9c0.8,0,1.5,0.1,2.1,0.4c0.6,0.3,1.2,0.6,1.6,1.1c0.5,0.5,0.8,1,1,1.7
			C355,669.2,355.1,669.9,355.1,670.7z M350,676L350,676c-0.8,0-1.5-0.1-2.1-0.4c-0.6-0.3-1.2-0.6-1.6-1.1c-0.5-0.5-0.8-1-1.1-1.7
			c-0.2-0.6-0.4-1.4-0.4-2.1c0-0.8,0.1-1.5,0.4-2.2c0.2-0.7,0.6-1.2,1-1.7c0.5-0.5,1-0.8,1.6-1.1c0.6-0.3,1.3-0.4,2.1-0.4h0v1.9h0
			c-0.5,0-1,0.1-1.3,0.4c-0.4,0.3-0.7,0.7-0.9,1.2c-0.2,0.5-0.3,1.1-0.3,1.8c0,0.7,0.1,1.3,0.3,1.8c0.2,0.5,0.5,0.9,0.9,1.2
			c0.4,0.3,0.8,0.4,1.4,0.4h0V676z"/>
		<path display="inline" fill="#808080" d="M365,670.9v3.4c0,0.5-0.1,1-0.4,1.2c-0.3,0.3-0.6,0.4-1,0.4c-0.4,0-0.7-0.1-1-0.4
			c-0.2-0.3-0.4-0.7-0.4-1.2v-4.1c0-0.7,0-1.2-0.1-1.5c0-0.4-0.2-0.7-0.4-0.9c-0.2-0.2-0.5-0.4-0.9-0.4c-0.9,0-1.4,0.3-1.7,0.9
			c-0.3,0.6-0.4,1.4-0.4,2.5v3.5c0,0.5-0.1,0.9-0.4,1.2c-0.2,0.3-0.6,0.4-1,0.4c-0.4,0-0.7-0.1-1-0.4c-0.3-0.3-0.4-0.7-0.4-1.2v-7.4
			c0-0.5,0.1-0.9,0.3-1.1c0.2-0.3,0.5-0.4,0.9-0.4c0.4,0,0.7,0.1,0.9,0.4c0.2,0.2,0.4,0.6,0.4,1v0.2c0.5-0.5,0.9-0.9,1.4-1.2
			c0.5-0.3,1.1-0.4,1.7-0.4c0.7,0,1.2,0.1,1.7,0.4c0.5,0.3,0.9,0.7,1.2,1.2c0.4-0.5,0.9-0.9,1.4-1.2c0.5-0.3,1.1-0.4,1.7-0.4
			c0.7,0,1.3,0.1,1.8,0.4c0.5,0.3,0.9,0.7,1.1,1.2c0.2,0.5,0.3,1.2,0.3,2.2v5.1c0,0.5-0.1,1-0.4,1.2c-0.2,0.3-0.6,0.4-1,0.4
			c-0.4,0-0.7-0.1-1-0.4c-0.3-0.3-0.4-0.7-0.4-1.2V670c0-0.6,0-1-0.1-1.3c0-0.3-0.2-0.6-0.4-0.8c-0.2-0.2-0.5-0.3-1-0.3
			c-0.3,0-0.7,0.1-1,0.3c-0.3,0.2-0.5,0.5-0.7,0.8C365.1,669,365,669.8,365,670.9z"/>
		<path display="inline" fill="#808080" d="M244.3,670.1C244.3,670.1,244.3,670.1,244.3,670.1C244.3,670.1,244.3,670.1,244.3,670.1z
			"/>
		<path display="inline" fill="#808080" d="M244.5,670.9L244.5,670.9c0-0.2-0.1-0.5-0.1-0.7C244.4,670.5,244.4,670.7,244.5,670.9z"
			/>
		<path display="inline" fill="#808080" d="M245.3,673.3C245.3,673.3,245.3,673.3,245.3,673.3C245.3,673.3,245.3,673.3,245.3,673.3z
			"/>
		<path display="inline" fill="#808080" d="M245.2,673.2c0,0,0-0.1-0.1-0.1C245.2,673.1,245.2,673.1,245.2,673.2z"/>
		<path display="inline" fill="#808080" d="M244.7,671.9c0.1,0.4,0.3,0.8,0.5,1.2C245,672.6,244.8,672.2,244.7,671.9L244.7,671.9z"
			/>
		<path display="inline" fill="#808080" d="M254.4,660.2c0.5,0,0.9,0,1.3,0.1l0.1-0.8c0,0-1.2-0.4-2.7-0.2l-0.1-0.4
			c0.5-0.1,0.8-0.5,0.8-1c0-0.6-0.5-1.1-1.1-1.1c-0.6,0-1.1,0.5-1.1,1.1c0,0.5,0.4,0.9,0.8,1l0.1,0.5c-1.6,0.2-2.9,0.9-2.9,0.9
			l0.2,0.7c1-0.3,1.8-0.5,2.6-0.6C253.3,660.2,253.9,660.2,254.4,660.2z"/>
		<path display="inline" fill="#808080" d="M245.3,664L245.3,664c0-0.1,0.1-0.1,0.1-0.2l-0.3-0.2l-0.5-0.4c0,0-0.8,0.7-1.4,2
			c0,0-0.1-0.1-0.1-0.1c-0.2-0.2-0.4-0.3-0.8-0.3h0c-0.2,0-0.3-0.1-0.4-0.1c0.1-0.1,0.1-0.3,0.1-0.4c0-0.4-0.3-0.7-0.7-0.7
			c-0.4,0-0.7,0.3-0.7,0.7c0,0.4,0.3,0.7,0.7,0.7c0.1,0,0.1,0,0.2,0c0.2,0.2,0.4,0.3,0.8,0.3c0.2,0,0.3,0,0.4,0.2
			c0.1,0.1,0.1,0.3,0.2,0.4c0,0,0,0,0,0c-0.4,1.2-0.3,2.7-0.3,2.7l1.1,0c0-0.5,0.1-1.5,0.4-2.2C244.6,665,245.3,664.1,245.3,664z"/>
		<path display="inline" fill="#808080" d="M263.6,661c-0.4,0-0.7,0.3-0.7,0.7c0,0.1,0,0.1,0,0.2c-0.2,0.2-0.3,0.4-0.3,0.8
			c0,0.2,0,0.3-0.2,0.4c-0.1,0.1-0.2,0.1-0.3,0.1c-0.8-1.1-1.8-1.8-1.8-1.8l-0.8,0.8c0.6,0.5,1.2,1.2,1.7,2c0.4,0.6,0.8,1.3,1.1,2
			l1-0.5c0,0-0.5-1.2-1.1-2.2c0.1,0,0.2-0.1,0.3-0.2c0.2-0.2,0.3-0.4,0.3-0.8c0-0.2,0.1-0.3,0.1-0.4c0.1,0.1,0.3,0.1,0.4,0.1
			c0.4,0,0.7-0.3,0.7-0.7C264.2,661.3,263.9,661,263.6,661z"/>
		<path display="inline" fill="#808080" d="M260.9,670.2c-1.4,0.7-3.7,1.6-6.8,2c-1.2,0.2-2.4,0.2-3.4,0.2c-1.4,0-2.6-0.1-3.6-0.2
			c-1.1-0.1-1.9-0.3-2.4-0.4c0.1,0.4,0.3,0.8,0.5,1.2c0,0,0,0,0,0c0,0,0,0.1,0.1,0.1c0,0,0,0.1,0.1,0.1c0,0,0,0,0,0
			c0.3,0.6,0.7,1.1,1.1,1.5c1.4,1.6,2.9,1.8,2.9,1.8l0,0l0,0c0,0,1.3,0.4,3.3,0.4c1.9,0,3.9-0.4,5.7-1.2c1.3-0.7,2.6-1.7,3.3-2.7
			c0.5-0.7,0.8-1.5,1.1-2.3c0.1-0.4,0.2-1.1,0.1-1.8C262.4,669.5,261.8,669.8,260.9,670.2z"/>
		<path display="inline" fill="#808080" d="M258,670.5c1-0.3,1.8-0.7,2.5-1c1.1-0.5,1.8-1,2.1-1.2c-0.3-1-1-2.6-1.7-3.6
			c-1-1.4-2-2.3-2.9-2.8v1.9c1,0,1.7,0.8,1.7,1.7c0,1-0.8,1.7-1.7,1.7V670.5z M249.8,671.6c1.3,0,2.7,0,4.2-0.2
			c1.5-0.2,2.9-0.6,4-0.9v-3.3h0c-1,0-1.7-0.8-1.7-1.7c0-1,0.8-1.7,1.7-1.7l0,0h0v-1.9c-1-0.6-1.8-0.9-2.4-1
			c-0.4-0.1-0.8-0.1-1.2-0.1c-0.4,0-1,0-1.7,0.1c-0.7,0.1-1.6,0.3-2.5,0.6c-0.1,0-0.2,0.1-0.3,0.1v2.1c1.6,0,2.8,1.3,2.8,2.8
			c0,1.6-1.3,2.8-2.8,2.8V671.6z M245.8,664.4c0,0.1-0.7,0.9-1.1,2.3c-0.4,1-0.3,2.4-0.3,2.5v0c0,0.3,0,0.7,0.1,1c0,0,0,0,0,0
			c0,0,0,0.1,0,0.1c0,0.2,0.1,0.5,0.1,0.7c0.5,0.1,2.6,0.6,5.3,0.7v-2.4h0c-1.6,0-2.8-1.3-2.8-2.8c0-1.6,1.3-2.8,2.8-2.8l0,0h0v-2.1
			c-1.2,0.5-2.3,1.1-3.2,1.9l0,0C246.4,663.6,246.1,663.9,245.8,664.4z"/>
	</g>
	<g id="Design">
		<g opacity="0.4">
			<ellipse opacity="0" fill="#FFFFFF" cx="251.9" cy="399.4" rx="167.1" ry="25.8"/>
			<ellipse opacity="1.492537e-002" fill="#FEFEFE" cx="251.9" cy="399.4" rx="165.2" ry="25.5"/>
			<ellipse opacity="2.985075e-002" fill="#FDFDFE" cx="251.9" cy="399.4" rx="163.4" ry="25.2"/>
			<ellipse opacity="4.477612e-002" fill="#FCFDFD" cx="251.9" cy="399.4" rx="161.6" ry="24.9"/>
			<ellipse opacity="5.970149e-002" fill="#FBFCFC" cx="251.9" cy="399.4" rx="159.8" ry="24.6"/>
			<ellipse opacity="7.462686e-002" fill="#FAFBFC" cx="251.9" cy="399.4" rx="157.9" ry="24.3"/>
			<ellipse opacity="8.955224e-002" fill="#F9FAFB" cx="251.9" cy="399.4" rx="156.1" ry="24"/>
			<ellipse opacity="0.1045" fill="#F8FAFB" cx="251.9" cy="399.4" rx="154.3" ry="23.7"/>
			<ellipse opacity="0.1194" fill="#F7F9FA" cx="251.9" cy="399.4" rx="152.4" ry="23.4"/>
			<ellipse opacity="0.1343" fill="#F6F8F9" cx="251.9" cy="399.4" rx="150.6" ry="23.2"/>
			<ellipse opacity="0.1493" fill="#F5F7F9" cx="251.9" cy="399.4" rx="148.8" ry="22.9"/>
			<ellipse opacity="0.1642" fill="#F4F7F8" cx="251.9" cy="399.4" rx="146.9" ry="22.6"/>
			<ellipse opacity="0.1791" fill="#F3F6F7" cx="251.9" cy="399.4" rx="145.1" ry="22.3"/>
			<ellipse opacity="0.194" fill="#F2F5F7" cx="251.9" cy="399.4" rx="143.3" ry="22"/>
			<ellipse opacity="0.209" fill="#F1F4F6" cx="251.9" cy="399.4" rx="141.5" ry="21.7"/>
			<ellipse opacity="0.2239" fill="#F0F4F5" cx="251.9" cy="399.4" rx="139.6" ry="21.4"/>
			<ellipse opacity="0.2388" fill="#EFF3F5" cx="251.9" cy="399.4" rx="137.8" ry="21.1"/>
			<ellipse opacity="0.2537" fill="#EEF2F4" cx="251.9" cy="399.4" rx="136" ry="20.8"/>
			<ellipse opacity="0.2687" fill="#EDF1F3" cx="251.9" cy="399.4" rx="134.1" ry="20.5"/>
			<ellipse opacity="0.2836" fill="#ECF1F3" cx="251.9" cy="399.4" rx="132.3" ry="20.2"/>
			<ellipse opacity="0.2985" fill="#EBF0F2" cx="251.9" cy="399.4" rx="130.5" ry="19.9"/>
			<ellipse opacity="0.3134" fill="#EAEFF2" cx="251.9" cy="399.4" rx="128.6" ry="19.6"/>
			<ellipse opacity="0.3284" fill="#E9EEF1" cx="251.9" cy="399.4" rx="126.8" ry="19.3"/>
			<ellipse opacity="0.3433" fill="#E8EDF0" cx="251.9" cy="399.4" rx="125" ry="19"/>
			<ellipse opacity="0.3582" fill="#E7EDF0" cx="251.9" cy="399.4" rx="123.2" ry="18.7"/>
			<ellipse opacity="0.3731" fill="#E6ECEF" cx="251.9" cy="399.4" rx="121.3" ry="18.4"/>
			<ellipse opacity="0.3881" fill="#E5EBEE" cx="251.9" cy="399.4" rx="119.5" ry="18.1"/>
			<ellipse opacity="0.403" fill="#E4EAEE" cx="251.9" cy="399.4" rx="117.7" ry="17.8"/>
			<ellipse opacity="0.4179" fill="#E3EAED" cx="251.9" cy="399.4" rx="115.8" ry="17.5"/>
			<ellipse opacity="0.4328" fill="#E2E9EC" cx="251.9" cy="399.4" rx="114" ry="17.2"/>
			<ellipse opacity="0.4478" fill="#E1E8EC" cx="251.9" cy="399.4" rx="112.2" ry="16.9"/>
			<ellipse opacity="0.4627" fill="#E0E7EB" cx="251.9" cy="399.4" rx="110.4" ry="16.6"/>
			<ellipse opacity="0.4776" fill="#DFE7EA" cx="251.9" cy="399.4" rx="108.5" ry="16.3"/>
			<ellipse opacity="0.4925" fill="#DEE6EA" cx="251.9" cy="399.4" rx="106.7" ry="16"/>
			<ellipse opacity="0.5075" fill="#DEE5E9" cx="251.9" cy="399.4" rx="104.9" ry="15.7"/>
			<ellipse opacity="0.5224" fill="#DDE4E9" cx="251.9" cy="399.4" rx="103" ry="15.4"/>
			<ellipse opacity="0.5373" fill="#DCE4E8" cx="251.9" cy="399.4" rx="101.2" ry="15.1"/>
			<ellipse opacity="0.5522" fill="#DBE3E7" cx="251.9" cy="399.4" rx="99.4" ry="14.8"/>
			<ellipse opacity="0.5672" fill="#DAE2E7" cx="251.9" cy="399.4" rx="97.5" ry="14.5"/>
			<ellipse opacity="0.5821" fill="#D9E1E6" cx="251.9" cy="399.4" rx="95.7" ry="14.2"/>
			<ellipse opacity="0.597" fill="#D8E1E5" cx="251.9" cy="399.4" rx="93.9" ry="13.9"/>
			<ellipse opacity="0.6119" fill="#D7E0E5" cx="251.9" cy="399.4" rx="92.1" ry="13.6"/>
			<ellipse opacity="0.6269" fill="#D6DFE4" cx="251.9" cy="399.4" rx="90.2" ry="13.3"/>
			<ellipse opacity="0.6418" fill="#D5DEE3" cx="251.9" cy="399.4" rx="88.4" ry="13"/>
			<ellipse opacity="0.6567" fill="#D4DEE3" cx="251.9" cy="399.4" rx="86.6" ry="12.7"/>
			<ellipse opacity="0.6716" fill="#D3DDE2" cx="251.9" cy="399.4" rx="84.7" ry="12.4"/>
			<ellipse opacity="0.6866" fill="#D2DCE1" cx="251.9" cy="399.4" rx="82.9" ry="12.1"/>
			<ellipse opacity="0.7015" fill="#D1DBE1" cx="251.9" cy="399.4" rx="81.1" ry="11.8"/>
			<ellipse opacity="0.7164" fill="#D0DAE0" cx="251.9" cy="399.4" rx="79.3" ry="11.5"/>
			<ellipse opacity="0.7313" fill="#CFDAE0" cx="251.9" cy="399.4" rx="77.4" ry="11.2"/>
			<ellipse opacity="0.7463" fill="#CED9DF" cx="251.9" cy="399.4" rx="75.6" ry="10.9"/>
			<ellipse opacity="0.7612" fill="#CDD8DE" cx="251.9" cy="399.4" rx="73.8" ry="10.6"/>
			<ellipse opacity="0.7761" fill="#CCD7DE" cx="251.9" cy="399.4" rx="71.9" ry="10.3"/>
			<ellipse opacity="0.791" fill="#CBD7DD" cx="251.9" cy="399.4" rx="70.1" ry="10"/>
			<ellipse opacity="0.806" fill="#CAD6DC" cx="251.9" cy="399.4" rx="68.3" ry="9.7"/>
			<ellipse opacity="0.8209" fill="#C9D5DC" cx="251.9" cy="399.4" rx="66.4" ry="9.4"/>
			<ellipse opacity="0.8358" fill="#C8D4DB" cx="251.9" cy="399.4" rx="64.6" ry="9.1"/>
			<ellipse opacity="0.8507" fill="#C7D4DA" cx="251.9" cy="399.4" rx="62.8" ry="8.8"/>
			<ellipse opacity="0.8657" fill="#C6D3DA" cx="251.9" cy="399.4" rx="61" ry="8.5"/>
			<ellipse opacity="0.8806" fill="#C5D2D9" cx="251.9" cy="399.4" rx="59.1" ry="8.2"/>
			<ellipse opacity="0.8955" fill="#C4D1D8" cx="251.9" cy="399.4" rx="57.3" ry="7.9"/>
			<ellipse opacity="0.9104" fill="#C3D1D8" cx="251.9" cy="399.4" rx="55.5" ry="7.6"/>
			<ellipse opacity="0.9254" fill="#C2D0D7" cx="251.9" cy="399.4" rx="53.6" ry="7.3"/>
			<ellipse opacity="0.9403" fill="#C1CFD7" cx="251.9" cy="399.4" rx="51.8" ry="7"/>
			<ellipse opacity="0.9552" fill="#C0CED6" cx="251.9" cy="399.4" rx="50" ry="6.7"/>
			<ellipse opacity="0.9701" fill="#BFCED5" cx="251.9" cy="399.4" rx="48.2" ry="6.4"/>
			<ellipse opacity="0.9851" fill="#BECDD5" cx="251.9" cy="399.4" rx="46.3" ry="6.1"/>
			<ellipse fill="#BDCCD4" cx="251.9" cy="399.4" rx="44.5" ry="5.8"/>
		</g>
		<text transform="matrix(1 0 0 1 41.6944 462.5611)" fill="#ED1E79" font-family="'BebasNeue'" font-size="50">INVENT HEALTHCARE</text>
		<g>
			<path fill="#29ABE2" d="M255.3,37.6c-90.4,0-163.6,73.3-163.6,163.6c0,29.9,8,57.9,22,82l-28.8,83.8l92.6-21.9
				c23.1,12.5,49.6,19.6,77.8,19.6c90.4,0,163.6-73.3,163.6-163.6C418.9,110.9,345.6,37.6,255.3,37.6z"/>
			<path opacity="0.19" fill="#0071BC" d="M368.5,83.2L85.1,366.6l-0.2,0.6l92.6-21.9c23.1,12.5,49.6,19.6,77.8,19.6
				c90.4,0,163.6-73.3,163.6-163.6C418.9,154.8,399.6,112.9,368.5,83.2z"/>
			<circle fill="#F9F9F9" cx="255.3" cy="202.4" r="138.3"/>
			<g>
				<path fill="none" d="M256.6,160.5C256.6,160.5,256.6,160.5,256.6,160.5C256.5,160.5,256.6,160.5,256.6,160.5
					C256.6,160.5,256.6,160.5,256.6,160.5z"/>
				<path fill="#ED1E79" d="M223.6,194.8c0.3-0.8,1.1-1.3,2-1.3c1,0,1.7,0.6,2.1,1.4l11.5,27.2l10.3-47c0.2-1,1.1-1.7,2.1-1.7
					c0,0,0,0,0,0c1,0,1.9,0.7,2.1,1.7l7.8,32.9l4.9-14.5c0.3-0.9,1.1-1.4,2-1.5c1,0,1.7,0.5,2.1,1.3l11.1,26.6l6.5-33.5
					c0.2-1,1.1-1.7,2.1-1.8c1-0.1,1.9,1,2.2,2l5.1,22.7h17.3c11.5-22,17.8-61-13.9-68.3c-31.9-7.3-43.8,18.1-44.4,19.4
					c-0.6-1.3-12.6-26.7-44.5-19.4c-35.3,8.1-23.3,55.5-9.7,75c0.8,1.1,1.5,2.2,2.3,3.2h10L223.6,194.8z M256.6,160.5
					C256.6,160.5,256.6,160.5,256.6,160.5C256.6,160.5,256.5,160.5,256.6,160.5C256.6,160.5,256.6,160.5,256.6,160.5z"/>
				<path fill="#ED1E79" d="M293.6,211.1l-3.2-13.8l-5.9,30.4c-0.2,0.9-1,1.7-1.9,1.8c-1,0.1-1.9-0.4-2.2-1.3l-11.7-27.9l-5.5,16.2
					c-0.3,0.9-1.1,1.5-2.2,1.5c-1,0-1.8-0.7-2-1.7l-7.3-30.9l-9.7,44.4c-0.2,0.9-1,1.6-1.9,1.7c-0.1,0-0.1,0-0.2,0
					c-0.9,0-1.7-0.5-2-1.3l-12-28.4l-7.6,21.1c-0.3,0.9-1.1,1.6-2.1,1.6h-7.7c23.9,31.2,47.8,45,48.2,45.2c0,0,0,0,0,0s0,0,0,0
					c0,0,0.2,0,0.2,0s0.2,0,0.2,0v0c2-1,28.7-17.2,53.9-53.4c0.8-1.2,1.6-2.4,2.4-3.8h-17.4C294.7,212.4,293.9,212.1,293.6,211.1z"
					/>
				<path fill="#FFFFFF" d="M194.3,219.4c-1.2,0-2.2,1.3-2.2,2.5s1,2.5,2.2,2.5h14.1c-1.2-1.6-2.5-3.3-3.7-5H194.3z"/>
				<path fill="#FFFFFF" d="M318.7,209.4h-3.9c-0.5,1-1.1,2-1.7,3h5.5c1.2,0,2.2-0.3,2.2-1.5S319.9,209.4,318.7,209.4z"/>
				<path fill="#FFFFFF" d="M297.5,209.4l-5.1-22.7c-0.2-1-1.2-2-2.2-2c-1,0-1.9,0.8-2.1,1.8l-6.5,33.5l-11.1-26.6
					c-0.3-0.8-1.1-1.4-2.1-1.3c-0.9,0-1.7,0.6-2,1.5l-4.9,14.5l-7.8-32.9c-0.2-1-1.1-1.7-2.1-1.7c0,0,0,0,0,0c-1,0-1.9,0.7-2.1,1.7
					l-10.3,47l-11.5-27.2c-0.3-0.8-1.1-1.4-2.1-1.4c-0.9,0-1.7,0.5-2,1.3l-9,24.6h-10c1.2,1.7,2.5,3.4,3.7,5h7.7
					c0.9,0,1.7-0.7,2.1-1.6l7.6-21.1l12,28.4c0.3,0.8,1.1,1.3,2,1.3c0.1,0,0.1,0,0.2,0c0.9-0.1,1.7-0.8,1.9-1.7l9.7-44.4l7.3,30.9
					c0.2,0.9,1,1.6,2,1.7c1.1,0.1,1.9-0.6,2.2-1.5l5.5-16.2l11.7,27.9c0.4,0.9,1.3,1.4,2.2,1.3c1-0.1,1.7-0.9,1.9-1.8l5.9-30.4
					l3.2,13.8c0.2,1,1.1,1.3,2.1,1.3h17.4c0.6-1,1.1-2,1.7-3H297.5z"/>
			</g>
		</g>
		<rect x="60.2" y="480.3" fill="none" width="383.3" height="44"/>
		<text transform="matrix(1 0 0 1 60.2304 488.7954)" display="none"><tspan x="0" y="0" display="inline" fill="#666666" font-family="'OpenSans'" font-size="12">Lorem</tspan><tspan x="32.2" y="0" display="inline" fill="#666666" font-family="'OpenSans'" font-size="12" letter-spacing="2"> </tspan><tspan x="37.2" y="0" display="inline" fill="#666666" font-family="'OpenSans'" font-size="12">ipsum</tspan><tspan x="68.3" y="0" display="inline" fill="#666666" font-family="'OpenSans'" font-size="12" letter-spacing="2"> </tspan><tspan x="73.3" y="0" display="inline" fill="#666666" font-family="'OpenSans'" font-size="12">dolor</tspan><tspan x="100" y="0" display="inline" fill="#666666" font-family="'OpenSans'" font-size="12" letter-spacing="2"> </tspan><tspan x="105.1" y="0" display="inline" fill="#666666" font-family="'OpenSans'" font-size="12">sit</tspan><tspan x="116.6" y="0" display="inline" fill="#666666" font-family="'OpenSans'" font-size="12" letter-spacing="2"> </tspan><tspan x="121.7" y="0" display="inline" fill="#666666" font-family="'OpenSans'" font-size="12">amet,</tspan><tspan x="149.9" y="0" display="inline" fill="#666666" font-family="'OpenSans'" font-size="12" letter-spacing="2"> </tspan><tspan x="155" y="0" display="inline" fill="#666666" font-family="'OpenSans'" font-size="12">consectetur</tspan><tspan x="214.2" y="0" display="inline" fill="#666666" font-family="'OpenSans'" font-size="12" letter-spacing="2"> </tspan><tspan x="219.3" y="0" display="inline" fill="#666666" font-family="'OpenSans'" font-size="12">adipiscing</tspan><tspan x="270.6" y="0" display="inline" fill="#666666" font-family="'OpenSans'" font-size="12" letter-spacing="2"> </tspan><tspan x="275.6" y="0" display="inline" fill="#666666" font-family="'OpenSans'" font-size="12">elit,</tspan><tspan x="293.7" y="0" display="inline" fill="#666666" font-family="'OpenSans'" font-size="12" letter-spacing="2"> </tspan><tspan x="298.8" y="0" display="inline" fill="#666666" font-family="'OpenSans'" font-size="12">sed</tspan><tspan x="316.3" y="0" display="inline" fill="#666666" font-family="'OpenSans'" font-size="12" letter-spacing="2"> </tspan><tspan x="321.4" y="0" display="inline" fill="#666666" font-family="'OpenSans'" font-size="12">do</tspan><tspan x="334.7" y="0" display="inline" fill="#666666" font-family="'OpenSans'" font-size="12" letter-spacing="2"> </tspan><tspan x="339.8" y="0" display="inline" fill="#666666" font-family="'OpenSans'" font-size="12">eiusmod </tspan><tspan x="0" y="14.4" display="inline" fill="#666666" font-family="'OpenSans'" font-size="12">tempor</tspan><tspan x="37.3" y="14.4" display="inline" fill="#666666" font-family="'OpenSans'" font-size="12" letter-spacing="2"> </tspan><tspan x="42.7" y="14.4" display="inline" fill="#666666" font-family="'OpenSans'" font-size="12">incididunt</tspan><tspan x="94" y="14.4" display="inline" fill="#666666" font-family="'OpenSans'" font-size="12" letter-spacing="2"> </tspan><tspan x="99.4" y="14.4" display="inline" fill="#666666" font-family="'OpenSans'" font-size="12">ut</tspan><tspan x="110" y="14.4" display="inline" fill="#666666" font-family="'OpenSans'" font-size="12" letter-spacing="2"> </tspan><tspan x="115.4" y="14.4" display="inline" fill="#666666" font-family="'OpenSans'" font-size="12">labore</tspan><tspan x="147.3" y="14.4" display="inline" fill="#666666" font-family="'OpenSans'" font-size="12" letter-spacing="2"> </tspan><tspan x="152.7" y="14.4" display="inline" fill="#666666" font-family="'OpenSans'" font-size="12">et</tspan><tspan x="162.7" y="14.4" display="inline" fill="#666666" font-family="'OpenSans'" font-size="12" letter-spacing="2"> </tspan><tspan x="168.1" y="14.4" display="inline" fill="#666666" font-family="'OpenSans'" font-size="12">dolore</tspan><tspan x="200.8" y="14.4" display="inline" fill="#666666" font-family="'OpenSans'" font-size="12" letter-spacing="2"> </tspan><tspan x="206.2" y="14.4" display="inline" fill="#666666" font-family="'OpenSans'" font-size="12">magna</tspan><tspan x="241.2" y="14.4" display="inline" fill="#666666" font-family="'OpenSans'" font-size="12" letter-spacing="2"> </tspan><tspan x="246.6" y="14.4" display="inline" fill="#666666" font-family="'OpenSans'" font-size="12">aliqua.</tspan><tspan x="279.7" y="14.4" display="inline" fill="#666666" font-family="'OpenSans'" font-size="12" letter-spacing="2"> </tspan><tspan x="285.1" y="14.4" display="inline" fill="#666666" font-family="'OpenSans'" font-size="12">Ut</tspan><tspan x="296.8" y="14.4" display="inline" fill="#666666" font-family="'OpenSans'" font-size="12" letter-spacing="2"> </tspan><tspan x="302.2" y="14.4" display="inline" fill="#666666" font-family="'OpenSans'" font-size="12">enim</tspan><tspan x="327.7" y="14.4" display="inline" fill="#666666" font-family="'OpenSans'" font-size="12" letter-spacing="2"> </tspan><tspan x="333.1" y="14.4" display="inline" fill="#666666" font-family="'OpenSans'" font-size="12">ad</tspan><tspan x="345.6" y="14.4" display="inline" fill="#666666" font-family="'OpenSans'" font-size="12" letter-spacing="2"> </tspan><tspan x="351" y="14.4" display="inline" fill="#666666" font-family="'OpenSans'" font-size="12">minim </tspan><tspan x="149.6" y="28.8" display="inline" fill="#666666" font-family="'OpenSans'" font-size="12">veniam, pariatur.</tspan></text>
	</g>
</g>
</svg>
